<svg version="1.2" xmlns="http://www.w3.org/2000/svg" viewBox="0 0 2395 679" width="2395" height="679">
	<style>
		.s0 { fill: #1c386c } 
	</style>
	<g id="Blue">
		<g id="Blue-2">
			<path id="Path 0" class="s0" d="m288.1 1.94c-0.6 1.13-1.98 8.92-3.05 17.31-1.08 8.39-2.52 22-3.2 30.25l-1.25 15c37.41 55.03 54.57 80.22 62.27 91.5 7.7 11.28 19.88 29.16 27.06 39.75 7.19 10.59 12.86 19.59 12.61 20-0.25 0.41-2.66-1.72-5.35-4.75-2.69-3.03-13.17-14.97-23.29-26.55-10.12-11.57-29.43-33.61-42.9-48.97-13.48-15.36-26.19-29.63-28.25-31.7-2.06-2.08-4.2-3.78-4.75-3.78-0.55 0-1.28 2.81-1.62 6.25l-0.62 6.25c17.69 24.8 28.55 40.21 35.53 50.25 6.99 10.04 12.48 18.47 12.21 18.75-0.28 0.28-2.19-1.4-4.25-3.72-2.06-2.32-9.34-10.31-16.18-17.75-6.84-7.44-15.95-17.24-20.25-21.78-4.3-4.54-8.05-7.8-8.32-7.25-0.28 0.55-0.94 4.26-1.47 8.25-0.53 3.99-0.98 9.16-1 11.5-0.03 3.88 1.11 5.82 12.97 22.25 7.15 9.9 12.77 18.22 12.5 18.5-0.28 0.28-4.44-2.5-9.25-6.18-4.81-3.67-10.44-7.94-12.5-9.5-2.06-1.55-4.09-2.65-4.5-2.44-0.41 0.2-1.08 1.89-1.49 3.75-0.41 1.85-1.89 13.94-3.29 26.87-1.4 12.93-2.74 24.18-2.98 25-0.33 1.11-3.86 1.95-13.72 3.24-7.3 0.96-38.02 4.88-68.27 8.72-30.25 3.83-72.78 9.22-94.5 11.98-21.73 2.76-49.18 6.39-61 8.07-11.83 1.67-22.4 3.29-23.5 3.6-1.75 0.49-1.81 0.72-0.5 1.86 0.82 0.71 14.32 7.82 30 15.8 15.67 7.97 30.52 15.27 33 16.21 4.42 1.67 4.75 1.65 18.5-1.35 7.7-1.67 25.47-5.56 39.5-8.63 14.02-3.07 30.45-6.68 36.5-8.01 6.05-1.33 21.8-4.69 35-7.46 13.2-2.77 26.92-5.71 30.5-6.53 3.57-0.82 15.39-3.29 26.25-5.49 10.86-2.21 20.54-3.98 21.5-3.95 1.14 0.05 0.7 0.56-1.25 1.48-1.65 0.78-7.05 2.96-12 4.84-4.95 1.88-16.43 6.21-25.5 9.63-9.08 3.41-23.48 8.8-32 11.97-8.53 3.17-27.65 10.34-42.5 15.94-14.85 5.6-31.5 11.95-37 14.12-5.5 2.16-10.9 4.56-12 5.34-1.87 1.31-1.33 1.73 8 6.33l10 4.93c55.02-14.25 78.09-20.25 86.75-22.51 8.66-2.27 16.52-4.13 17.45-4.13 1.05 0 1.34 0.35 0.75 0.92-0.52 0.5-11.08 5.5-23.45 11.1-12.38 5.6-29.25 13.02-37.5 16.49-8.25 3.47-16.69 6.58-18.75 6.9-2.06 0.33-3.74 0.93-3.74 1.34 0.01 0.41 1.47 1.7 3.25 2.85 1.78 1.16 5.83 3.29 8.99 4.75 3.16 1.46 6.54 2.66 7.5 2.66 0.96 0.01 10.07-2.27 20.25-5.07 10.17-2.79 22.44-6.17 27.25-7.51 5.25-1.46 8.65-1.99 8.5-1.34-0.14 0.6-7.73 5.44-16.87 10.75-9.14 5.31-17.65 10.34-18.92 11.16-1.26 0.82-2.04 1.95-1.72 2.5 0.32 0.55 13.48 7.52 29.25 15.5l28.67 14.5c-0.98 20.93-2.82 49.73-4.72 77.5-1.9 27.77-4.58 66.25-5.94 85.5-1.37 19.25-3.61 51.31-4.99 71.25-1.38 19.94-2.49 39.29-2.47 43l0.05 6.75c7.08-7.75 15.73-17.88 23.79-27.5 8.06-9.62 15.82-19.08 17.26-21l2.6-3.5c0.97-65.1 1.73-114.15 2.33-151 0.6-36.85 1.28-67.68 1.52-68.5 0.24-0.82 0.63-1.27 0.87-1 0.25 0.27 2.71 23.68 5.47 52 2.77 28.32 6.39 66.13 8.05 84 1.66 17.88 3.49 36.77 4.06 42 0.58 5.23 1.26 10.17 1.52 11 0.37 1.2 0.99 0.99 3.05-1 1.42-1.37 4.73-5.2 7.35-8.5l4.77-6c1.12-90.68 1.63-117.23 1.86-117.5 0.22-0.27 0.62-0.27 0.87 0 0.25 0.27 1.62 10.63 3.05 23 1.43 12.38 3.94 34.42 5.59 49 1.65 14.58 3.21 26.73 3.47 27 0.25 0.27 0.83 0.05 1.27-0.5 0.45-0.55 3.58-4.37 6.96-8.5l6.15-7.5c0.19-39.52 0.61-52.13 1.05-53.5 0.44-1.37 0.84-2.05 0.89-1.5 0.05 0.55 1.67 9.89 3.6 20.75 1.93 10.86 3.51 19.98 3.51 20.25 0 0.27 0.34 0.52 0.75 0.54 0.41 0.03 7.27-7.92 15.25-17.67 7.97-9.74 18.25-22.25 22.83-27.79 4.57-5.54 8.85-10.22 9.5-10.39 0.64-0.18 5.89 1.78 11.67 4.34 5.77 2.57 21.3 10.22 34.5 17 13.2 6.78 44.92 23.19 70.5 36.45 25.58 13.26 56.06 28.82 67.75 34.57 11.69 5.75 21.59 10.24 22 9.98 0.41-0.26-4.01-9.38-9.82-20.25-5.82-10.88-13.25-24.45-16.5-30.17-3.26-5.71-6.83-10.98-7.93-11.7-1.1-0.73-15.73-7.24-32.5-14.47-16.78-7.24-35-15.08-40.5-17.43-5.5-2.35-22.6-9.76-38-16.48-15.4-6.71-32.28-14.05-37.5-16.31-5.23-2.26-9.05-4.26-8.5-4.45 0.55-0.18 27.1 6.19 59 14.15 31.9 7.96 61.83 15.39 66.5 16.51 4.67 1.12 9.51 2.05 10.75 2.05l2.25 0.02c-4.08-7.68-6.48-10.33-8.78-11.66-2.04-1.18-19.02-8.31-37.72-15.83-18.7-7.51-34.68-14.07-35.5-14.56q-1.49-0.88-0.25-0.92c0.69-0.02 13.06 2.4 27.5 5.37 14.44 2.96 28.84 5.66 32 6 3.16 0.33 5.76 0.49 5.77 0.35 0.02-0.14-1.68-3.4-3.77-7.25l-3.8-7c-16.68-6.2-21.5-8.34-21.48-8.75 0.01-0.41 0.82-0.56 1.78-0.33 0.96 0.23 4.34 0.68 7.5 1 4.7 0.47 5.75 0.31 5.75-0.92 0-0.82-2.08-5.66-4.62-10.75-2.53-5.09-9.69-18.7-15.9-30.25-6.21-11.55-11.54-21.9-11.85-23-0.42-1.47 1.55-4.63 7.47-12 4.43-5.5 28.6-35.81 53.73-67.34 25.12-31.54 50.03-63.04 55.37-70l9.7-12.66c-5.74-0.49-14.15 0.09-22.4 0.96-8.25 0.87-18.38 2.07-22.5 2.66-4.13 0.59-8.13 1.59-8.9 2.23-0.77 0.63-4.87 6.33-9.1 12.65-4.24 6.32-16 24.32-26.14 40-10.14 15.68-20.44 31.65-22.9 35.49-2.45 3.85-8.85 13.63-14.21 21.75-5.36 8.12-9.98 14.53-10.25 14.26-0.28-0.27 5.17-12.54 12.11-27.25 6.93-14.71 19.76-41.94 28.5-60.5 8.74-18.56 15.89-33.97 15.89-34.25 0-0.28-2.48-0.5-5.5-0.5-3.03 0-6.4 0.45-7.5 1-1.1 0.55-3.73 3.36-5.84 6.25-2.12 2.89-10.5 15.15-18.63 27.25-8.13 12.1-15.51 22.79-16.41 23.76-0.89 0.96-1.74 1.64-1.9 1.5-0.15-0.14 4.95-12.64 11.34-27.76 6.39-15.13 11.69-27.91 11.78-28.4 0.09-0.5-2.32-0.82-5.34-0.71-3.03 0.1-6.71 0.54-8.18 0.97-1.86 0.53-5.64 4.73-12.34 13.71-5.32 7.11-10.29 13.83-11.05 14.93-0.76 1.1-1.62 1.78-1.92 1.5-0.29-0.28 2.19-6.35 5.51-13.5 3.32-7.15 6.03-13.56 6.01-14.25-0.02-0.87-1.18-1.09-3.78-0.74-2.06 0.28-15.23 1.63-29.25 3-14.03 1.37-26.74 2.49-28.25 2.49-2.48 0-3.37-1.15-9.12-11.75-3.51-6.46-23.15-42.8-43.65-80.75-20.5-37.95-42.88-79.13-49.73-91.5-6.86-12.38-13.67-24.3-15.15-26.5-1.47-2.2-3.4-4.14-4.29-4.31-0.88-0.17-2.1 0.62-2.71 1.75z"/>
			<path id="Path 0" fill-rule="evenodd" class="s0" d="m777.18 99l89.32 0.15 27.5 29.85v64.5c0 35.48-0.34 64.66-0.75 64.86-0.41 0.19-11.77-8.03-49.75-36.88l-0.5-71.48h-43v255h43l-0.03-46.25c-0.01-25.44 0.32-46.57 0.75-46.97 0.43-0.4 11.9 6.8 50.22 32.72l0.06 81-27.5 31.52-88 0.07-7.07-7.3c-3.9-4.01-10.31-10.78-21.43-22.79l0.02-298.5zm286.32 0.2l90-0.23 27.45 30.53 0.05 296.5-13.15 14.25c-7.22 7.84-13.86 14.82-14.75 15.52-1.24 0.98-11.37 1.26-44.6 1.23-23.65-0.02-43.51-0.36-44.14-0.77-0.62-0.4-7.27-7.48-28.39-30.73l0.03-296.5zm23.5 305.8h43v-255h-43zm291.5-306l9.87 84.25c5.43 46.34 10.2 86.05 10.6 88.25 0.42 2.31 0.97 3.37 1.29 2.5 0.31-0.82 3.76-32.77 7.66-71 3.91-38.22 7.08-70.85 7.06-72.5-0.03-2.16-2.68-6.64-9.44-16-7.4-10.23-9.15-13.27-8.22-14.29 0.91-1 7.08-1.29 52.68-1.21l0.5 3.75c0.27 2.07 5.25 41.78 11.06 88.25 5.82 46.48 10.76 84.73 10.99 85 0.24 0.28 0.62-0.17 0.85-1 0.24-0.82 3.85-32.32 8.04-70 4.18-37.67 7.85-70.3 8.15-72.5 0.52-3.86 0.17-4.46-10.03-17.25-8.92-11.19-10.37-13.49-9.31-14.79 1.09-1.35 6.08-1.54 75.75-1.46l-0.49 2.75c-0.27 1.52-12.68 81.73-27.57 178.25-14.89 96.53-27.27 175.84-27.51 176.25-0.24 0.42-8.08 0.75-17.43 0.75-12.57 0-17.18-0.32-17.69-1.25-0.38-0.68-4.63-34.32-9.44-74.75-4.81-40.42-9.02-75.97-9.35-79-0.33-3.02-0.78-5.27-1-5-0.22 0.28-5.85 35.38-12.51 78-6.65 42.63-12.53 78.52-13.06 79.75-0.93 2.21-1.29 2.25-17.45 2.25-16.3 0-16.51-0.02-16.99-2.25-0.26-1.23-10.88-75.15-46.68-326.25l-9.67-10.37c-5.31-5.71-10.85-11.79-12.29-13.5-1.45-1.72-2.42-3.69-2.17-4.38 0.36-0.97 8.72-1.25 73.8-1.25zm417.5 0l27.96 34.5 0.04 126.5-13.97 10.25c-7.69 5.64-13.98 10.48-13.98 10.75-0.01 0.28 6.29 5 28.01 20.5l-0.06 124.5-13.65 14.75c-7.51 8.12-14.26 15.09-15 15.5-0.74 0.42-27.12 0.64-115.85 0.25l-0.5-328.5-9.5-13c-7.62-10.42-9.28-13.29-8.39-14.5 0.97-1.3 9.7-1.5 134.89-1.5zm-66 166c3.78-2.71 13.44-10.02 23.9-18l19.02-14.5 0.08-82.5h-43zm0.06 59.5l-0.06 80.5h43l-0.11-78.5c-16.97-12.78-22.5-16.75-23.23-17.06-0.77-0.32-5.23 2.77-10.47 7.25zm263.44-225.39l90-0.06 26.43 29.45 0.07 298.5-27.66 29.5-87.84 0.55-28.59-31.55 0.18-297zm22.5 305.9h44v-255h-44zm278.5-306.03l12.9 51.27c7.1 28.19 13.28 51.94 13.72 52.76 0.45 0.83 0.84 1.28 0.86 1 0.02-0.27 4.49-17.37 19.82-75.5l-10.91-13.5c-6-7.42-10.76-13.95-10.57-14.5 0.22-0.63 13.85-1.09 37.51-1.25 34.98-0.23 37.14-0.14 36.71 1.5-0.25 0.97-11.49 41.8-49.51 179.75l-0.02 73.5c-0.01 40.43 0.37 73.95 0.83 74.5 0.46 0.55 4.96 6.29 10 12.75 8.91 11.44 9.11 11.81 7.41 13.79-1.71 2-2.58 2.04-68.75 1.46l-1-180-19.78-72.5c-10.87-39.87-20.21-73.51-20.75-74.75-0.53-1.23-5.02-7.87-9.97-14.75-5.05-7.01-8.79-13.16-8.53-14 0.41-1.29 4.67-1.5 60.03-1.53z"/>
			<path id="Path 0" fill-rule="evenodd" class="s0" d="m1706.5 540.05c5.35-0.06 9.59 0.74 18 3.39 7.94 2.51 12.94 4.81 17.96 8.27 3.83 2.63 9.59 7.94 12.8 11.79 4 4.79 6.82 9.52 8.98 15 2.75 7.01 3.2 9.49 3.57 20 0.33 9.36 0.05 13.32-1.3 18-0.95 3.3-3.21 8.93-5.03 12.5-1.82 3.58-5.52 8.98-8.23 12-2.71 3.03-7.81 7.4-11.34 9.71-3.52 2.32-9.11 5.15-12.41 6.29-3.3 1.14-8.81 2.73-12.25 3.53-3.44 0.81-8.16 1.48-10.5 1.48-2.34 0.01-7.85-0.7-12.25-1.57-4.58-0.92-11.85-3.43-17-5.9-7.48-3.57-10.18-5.55-16-11.73-4.05-4.3-8.35-10.15-10.2-13.88-1.76-3.53-3.95-9.35-4.87-12.93-1.28-4.95-1.56-9.24-1.2-18 0.42-9.94 0.9-12.52 3.59-19 1.71-4.12 5.29-10.42 7.97-14 2.67-3.57 7.3-8.48 10.28-10.89 2.99-2.42 8.24-5.68 11.68-7.25 3.44-1.57 9.51-3.73 13.5-4.8 3.99-1.07 10.4-1.97 14.25-2.01zm-16 28.66c-2.2 1.14-6.14 4.37-8.75 7.18-2.61 2.81-5.64 7.02-6.73 9.36-1.09 2.34-2.26 7.18-2.61 10.75-0.35 3.63-0.13 9.15 0.51 12.5 0.63 3.3 2.14 7.96 3.36 10.36 1.22 2.4 4.25 6.26 6.72 8.58 2.47 2.33 6.53 5.31 9 6.64 3.94 2.12 5.8 2.42 15 2.42 9.8 0 10.86-0.2 15.88-3 2.95-1.65 6.89-4.69 8.75-6.75 1.85-2.06 4.6-6.11 6.09-9 2.45-4.72 2.73-6.3 2.75-15.75 0.03-9.67-0.21-11.02-3.04-17-1.68-3.57-4.83-8.22-7-10.32-2.16-2.1-6.18-4.92-8.93-6.28-3.54-1.74-7.19-2.58-12.5-2.88-4.13-0.23-9.08-0.07-11 0.36-1.92 0.42-5.3 1.7-7.5 2.83zm460.5-27.26c5.22 0.27 12.43 1.24 16 2.16 3.57 0.91 9.2 3 12.5 4.63 3.3 1.64 7.46 4.06 12.5 7.76l-3.16 4.75c-1.74 2.61-4.66 6.89-9.84 14.25l-9.25-4.5c-5.09-2.47-11.72-5-14.75-5.62-3.03-0.61-7.53-0.86-10-0.53-3.09 0.4-5.52 1.53-7.75 3.62-2.27 2.12-3.25 3.93-3.25 6.03 0 1.65 0.45 3.9 1 5 0.55 1.1 2.69 2.86 4.75 3.91 2.06 1.05 8.93 3.48 15.25 5.41 6.32 1.93 13.97 4.42 17 5.54 3.03 1.11 8.31 4.08 11.75 6.58 4.91 3.58 6.84 5.79 8.99 10.31 1.95 4.11 2.83 7.75 3.09 12.75 0.3 5.71-0.11 8.2-2.19 13.5-1.4 3.58-4.31 8.53-6.45 11-2.15 2.48-6.1 5.71-8.8 7.19-2.69 1.48-8.04 3.45-11.89 4.36-5.28 1.26-9.46 1.52-17 1.08-5.5-0.33-12.7-1.28-16-2.11-3.3-0.84-9.6-3.31-14-5.5-4.4-2.19-9.69-5.56-15.5-11.02l3.72-4.75c2.04-2.61 5.3-6.64 10.78-13.13l4 2.84c2.2 1.56 7.38 4.44 11.5 6.4 5.63 2.67 9.37 3.72 15 4.19 4.26 0.36 9.23 0.19 11.5-0.41 2.2-0.58 5.13-2.23 6.5-3.67 1.82-1.91 2.5-3.73 2.5-6.65 0-3.25-0.57-4.47-3-6.44-1.75-1.41-9.67-4.55-19-7.52-8.8-2.8-18.25-6.15-21-7.44-2.75-1.29-6.75-3.83-8.9-5.64-2.14-1.8-5.06-5.53-6.5-8.28-2.3-4.43-2.6-6.14-2.57-15 0.03-8.35 0.4-10.7 2.25-14.25 1.22-2.34 4.13-6.33 6.47-8.86 2.34-2.54 5.6-5.32 7.25-6.18 1.65-0.85 6.15-2.61 10-3.91 6.02-2.02 8.33-2.28 16.5-1.85zm-1201.74 1.29l68.24 0.91 5.5 2.64c3.03 1.45 7.23 4.12 9.35 5.93 2.12 1.8 4.94 5.53 6.26 8.28 1.32 2.75 2.68 7.25 3.02 10 0.41 3.31 0.08 6.85-0.98 10.5-1.15 3.93-3.18 7.28-12.65 18l3.75 1.88c2.06 1.03 5.27 3.17 7.14 4.75 1.86 1.58 4.56 4.9 6 7.37 2.32 3.99 2.61 5.57 2.61 14 0 7.48-0.42 10.35-1.99 13.5-1.09 2.2-3.79 5.78-6 7.95-2.21 2.17-6.26 4.97-9.01 6.22-2.75 1.25-7.48 2.74-10.5 3.31-3.12 0.59-19.69 1.04-71 1.02zm24.73 47.76c24.42-1.3 32.86-2.25 34.51-2.95 1.65-0.7 3.74-2.13 4.63-3.17 0.9-1.03 1.91-2.9 2.25-4.13 0.34-1.24 0.2-3.94-0.31-6-0.58-2.34-1.99-4.47-3.75-5.65-1.96-1.31-5.72-2.14-12.32-2.71-5.22-0.45-12.99-0.84-17.25-0.86l-7.75-0.03zm0 47c27.52-1.25 37.09-1.91 39.01-2.28 1.93-0.36 4.74-1.92 6.25-3.44 2.08-2.11 2.75-3.76 2.75-6.78 0-2.2-0.56-5.16-1.25-6.56-0.69-1.41-3.05-3.42-5.25-4.45-3.26-1.54-7.46-2.02-22.59-2.59l-18.6-0.7zm155.09-95.56l24.28 0.56 49.34 116-12.6 0.27c-6.93 0.15-13.05 0.11-13.6-0.1-0.55-0.2-3.25-5.78-11-24.44l-9.5-0.61c-5.22-0.34-16.36-0.61-40-0.62l-9.74 25.5-12.38 0.25c-6.81 0.14-12.73-0.08-13.16-0.5-0.43-0.41 9.64-25.28 22.38-55.25 12.75-29.98 23.81-55.98 24.58-57.78zm1.86 55.29c-2.97 7.19-4.11 11.08-3.44 11.76 0.6 0.61 6.36 0.91 14.6 0.76l13.59-0.25c-11-26.02-14.5-33.56-14.88-33.54-0.39 0.02-1.76 2.4-3.06 5.29-1.31 2.89-4.37 10.08-6.81 15.98zm111.06-54.23h26v116h-26zm75 0h25v93h59v23h-84zm193 0h67l6.75 3.46c3.71 1.9 8.67 5.39 11.02 7.75 2.35 2.36 4.79 5.86 5.43 7.79 0.64 1.92 1.2 6.87 1.23 11 0.04 4.12-0.32 8.85-0.8 10.5-0.47 1.65-3.39 5.59-6.5 8.76-3.1 3.16-5.41 5.9-5.13 6.08 0.27 0.18 2.52 1.69 5 3.36 2.47 1.66 5.96 4.65 7.75 6.66 1.78 2 3.93 5.33 4.77 7.39 0.84 2.06 1.79 5.77 2.11 8.25 0.32 2.47 0.01 7.2-0.69 10.5-0.93 4.39-2.37 7.34-5.36 11-2.78 3.4-6.16 6.03-10.58 8.24-3.58 1.79-8.98 3.71-12 4.26-3.03 0.56-20.02 1.01-70 1zm24.99 47.5c26.68-1.15 30.42-1.67 34.26-3.38 2.61-1.17 5.2-3.02 5.75-4.12 0.55-1.1 1-3.69 1-5.75 0.01-2.06-0.78-4.85-1.75-6.19-0.96-1.34-3.1-2.99-4.75-3.67-1.65-0.67-10.02-1.55-18.6-1.95l-15.6-0.73zm0 47c34.12-1.44 39.26-2.01 41.81-3.31 1.84-0.94 3.95-3.13 4.75-4.94 0.8-1.79 1.45-4.15 1.45-5.25 0-1.1-0.47-3.01-1.04-4.25-0.58-1.24-2.49-3.28-4.25-4.54-2.61-1.87-5.27-2.47-14.21-3.2-6.05-0.5-14.94-0.93-19.75-0.96l-8.75-0.05zm276-94.5l24.5-0.07 52.1 68.57 0.7-13.5c0.39-7.43 0.71-22.84 0.7-55h26v116l-22.5 0.06-54-71.14-0.63 9.29c-0.36 5.11-0.69 21.1-0.87 61.79h-26zm152.18-0.18l60.32 0.78 8 3c4.4 1.66 10.86 5.01 14.35 7.45 3.49 2.45 8.79 7.37 11.77 10.95 2.99 3.57 6.36 8.97 7.49 12 1.13 3.02 2.69 7.97 3.48 11 0.78 3.02 1.41 8.65 1.4 12.5-0.01 3.85-0.7 10.15-1.54 14-0.83 3.85-3.19 10.12-5.23 13.94-2.04 3.81-6.42 9.69-9.72 13.05-4.15 4.23-8.3 7.22-13.5 9.73-4.12 1.99-9.75 4.43-12.5 5.42-4.32 1.56-9.04 1.84-64.5 2.36zm25.82 93.68c28.23-1.46 31.25-1.93 35.51-3.96 2.75-1.31 6.77-4.33 8.94-6.71 2.17-2.38 5.07-6.81 6.45-9.83 2.1-4.59 2.51-6.99 2.5-14.5-0.02-6.85-0.54-10.32-2.19-14.5-1.19-3.03-3.45-7.08-5.03-9-1.58-1.93-5.75-5.03-9.27-6.89-5.04-2.66-8.22-3.56-14.9-4.23-4.68-0.47-11.54-0.86-15.25-0.87l-6.75-0.01z"/>
		</g>
	</g>
</svg>