<?xml version="1.0" encoding="UTF-8"?>
<svg id="Layer_2" data-name="Layer 2" xmlns="http://www.w3.org/2000/svg" viewBox="0 0 2395 678.96">
  <defs>
    <style>
      .cls-1 {
        fill: #b2a793;
      }

      .cls-2 {
        isolation: isolate;
      }

      .cls-3 {
        fill: #1c386c;
      }
    </style>
  </defs>
  <g id="Blue" class="cls-2">
    <g id="Blue-2" data-name="Blue">
      <path class="cls-1" d="M399.19,439.06l154.97,39.99-7.09-13.01-88.61-35.43,78.09,16.13-8.21-15.05-34.76-12.29,30.89,5.2-36.44-66.82,129.4-162.45-55.97,5.6h.51l-92.43,143.78,67.22-141.3-15.66,1.57-47.86,72.52,30.55-70.78-17.08,1.71-30.11,42.93,20.79-42-65.16,6.52L299.47,6.76c-10.32-16.22-11.09,1.87-11.09,1.87l-5.87,58.83.33-2.81,116.46,169.92-119.73-137.68-1.54,15.47,62.12,86.73-62.85-69.09v-10.28l-3.48,34.85,33.06,44.52-34.73-27.7-5.93,59.44L0,264.43l129.93,67.08,121.47-31.6-96.13,42.95-20.91-9.05,115.19,59.47-20.34,285.69s41.59-50.35,83.19-100.99l1.85-141.75,12.94,123.23-11.42,14.42c8.93-10.87,17.8-21.68,26.21-31.96v-70.22l9.24,57.88-5.44,7.69c27.24-33.29,48.77-59.84,49.8-61.84,2.89-5.61,7.4-3.73,7.4-3.73l205.19,106.43-35.04-64.24-173.96-74.82ZM188.55,361.53l-16.64-9.33,66.55-18.67-49.91,28.01ZM110.91,320.45l-40.67-20.54,225.53-48.55-184.86,69.09ZM273.59,624.81l3.7-246.47,20.33,216.6-24.03,29.87Z"/>
      <path class="cls-3" d="M777.24,98.91l-27.56,30.11v297.53l27.56,29.6,89.31.51,27.05-30.62v-81.66l-50.01-33.68v94.42h-43.89v-255.17h43.89v71.45l50.01,37.77v-130.65l-27.56-29.6h-88.8ZM1064.05,98.91l-27.56,29.6v297.53l27.56,30.11h88.8l27.56-29.6V129.02l-27.05-30.11h-89.31ZM1130.39,405.11h-43.89v-255.17h43.89v255.17ZM1468.75,101.46l21.43,27.05-17.35,153.61-22.97-183.21h-51.54l-2.04,2.55,19.39,27.05-15.82,153.1-21.43-182.7h-72.47l-2.04,2.55,25.01,27.05,46.95,327.64h34.19l25.52-162.29,19.39,162.29h35.72l55.12-357.24h-74.51l-2.55,2.55ZM1662.16,98.91l-2.04,3.06,19.39,26.54v327.64h116.36l27.56-29.6v-125.54l-28.07-19.9,28.07-20.92v-127.07l-27.56-34.19h-133.71ZM1773.41,405.11h-43.89v-80.13l19.39-16.84,24.5,18.88v78.08ZM1773.41,232.1l-43.89,33.69v-115.85h43.89v82.16ZM1993.88,98.91l-27.56,29.6v297.53l27.56,30.11h88.8l27.56-29.6V129.02l-27.05-30.11h-89.31ZM2060.22,405.11h-43.89v-255.17h43.89v255.17ZM2344.48,282.12l50.52-183.21h-73.49l-1.53,2.55,21.95,27.05-20.41,77.57-27.05-107.17h-59.2l-1.53,2.55,19.39,27.05,41.34,152.59v175.05h67.88l3.06-2.55-20.92-26.54v-144.94Z"/>
      <path class="cls-1" d="M1026.38,598.41c8.32-4.66,15.32-11.99,15.32-25.14v-.33c0-7.99-2.66-14.48-7.99-19.81-6.66-6.66-17.15-10.32-30.47-10.32h-54.11v116.54h55.44c26.3,0,43.62-10.66,43.62-31.97v-.33c0-15.65-8.32-23.47-21.81-28.64ZM974.11,565.28h25.31c10.82,0,16.82,4.33,16.82,11.99v.33c0,8.66-7.16,12.32-18.48,12.32h-23.64v-24.64ZM1022.72,624.21c0,8.66-6.83,12.65-18.15,12.65h-30.47v-25.64h29.63c13.15,0,18.98,4.83,18.98,12.65v.33ZM1129.26,541.97l-49.95,117.37h26.14l10.66-26.14h49.28l10.66,26.14h26.8l-49.95-117.37h-23.64ZM1125.27,610.56l15.48-37.79,15.48,37.79h-30.97ZM1241.97,659.34h25.64v-116.54h-25.64v116.54ZM1342.35,542.8h-25.64v116.54h83.74v-23.31h-58.1v-93.23ZM1586.91,598.41c8.32-4.66,15.32-11.99,15.32-25.14v-.33c0-7.99-2.66-14.48-7.99-19.81-6.66-6.66-17.15-10.32-30.47-10.32h-54.11v116.54h55.44c26.3,0,43.62-10.66,43.62-31.97v-.33c0-15.65-8.32-23.47-21.81-28.64ZM1534.63,565.28h25.31c10.82,0,16.81,4.33,16.81,11.99v.33c0,8.66-7.16,12.32-18.48,12.32h-23.64v-24.64ZM1583.24,624.21c0,8.66-6.83,12.65-18.15,12.65h-30.47v-25.64h29.63c13.15,0,18.98,4.83,18.98,12.65v.33ZM1706.77,540.81c-35.96,0-62.1,27.14-62.1,60.27v.33c0,33.13,25.81,59.93,61.77,59.93s62.1-27.14,62.1-60.27v-.33c0-33.13-25.81-59.93-61.77-59.93ZM1741.73,601.41c0,19.98-14.32,36.29-34.96,36.29s-35.3-16.65-35.3-36.63v-.33c0-19.98,14.32-36.29,34.96-36.29s35.29,16.65,35.29,36.63v.33ZM1889.56,614.56l-54.61-71.76h-23.64v116.54h25.31v-74.09l56.44,74.09h21.81v-116.54h-25.31v71.76ZM2008.25,542.8h-45.45v116.54h45.45c36.63,0,61.93-25.47,61.93-58.27v-.33c0-32.8-25.31-57.94-61.93-57.94ZM2043.38,601.41c0,20.64-14.15,34.8-35.13,34.8h-19.81v-70.26h19.81c20.98,0,35.13,14.48,35.13,35.13v.33ZM2158.58,589.59c-20.14-5.16-25.14-7.66-25.14-15.32v-.33c0-5.66,5.16-10.16,14.98-10.16s19.98,4.33,30.3,11.49l13.32-19.31c-11.82-9.49-26.3-14.82-43.29-14.82-23.81,0-40.79,13.98-40.79,35.13v.33c0,23.14,15.15,29.63,38.62,35.63,19.48,4.99,23.47,8.32,23.47,14.82v.33c0,6.83-6.33,10.99-16.82,10.99-13.32,0-24.31-5.49-34.8-14.15l-15.15,18.15c13.98,12.49,31.8,18.65,49.45,18.65,25.14,0,42.79-12.99,42.79-36.13v-.33c0-20.31-13.32-28.8-36.96-34.96Z"/>
    </g>
  </g>
</svg>