<?xml version="1.0" encoding="UTF-8"?>
<svg id="Layer_2" data-name="Layer 2" xmlns="http://www.w3.org/2000/svg" viewBox="0 0 617.43 678.96">
  <defs>
    <style>
      .cls-1 {
        fill: #b2a793;
      }

      .cls-2 {
        isolation: isolate;
      }
    </style>
  </defs>
  <g id="star" class="cls-2">
    <path id="star-2" data-name="star" class="cls-1" d="M399.19,439.06l154.97,39.99-7.09-13.01-88.61-35.43,78.09,16.13-8.21-15.05-34.76-12.29,30.89,5.2-36.44-66.82,129.4-162.45-55.97,5.6h.51l-92.43,143.78,67.22-141.3-15.66,1.57-47.86,72.52,30.55-70.78-17.08,1.71-30.11,42.93,20.79-42-65.16,6.52L299.47,6.76c-10.32-16.22-11.09,1.87-11.09,1.87l-5.87,58.83.33-2.81,116.46,169.92-119.73-137.68-1.54,15.47,62.12,86.73-62.85-69.09v-10.28l-3.48,34.85,33.06,44.52-34.73-27.7-5.93,59.44L0,264.43l129.93,67.08,121.47-31.6-96.13,42.95-20.91-9.05,115.19,59.47-20.34,285.69s41.59-50.35,83.19-100.99l1.85-141.75,12.94,123.23-11.42,14.42c8.93-10.87,17.8-21.68,26.21-31.96v-70.22l9.24,57.88-5.44,7.69c27.24-33.29,48.77-59.84,49.8-61.84,2.89-5.61,7.4-3.73,7.4-3.73l205.19,106.43-35.04-64.24-173.96-74.82ZM188.55,361.53l-16.64-9.33,66.55-18.67-49.91,28.01ZM110.91,320.45l-40.67-20.54,225.53-48.55-184.86,69.09ZM273.59,624.81l3.7-246.47,20.33,216.6-24.03,29.87Z"/>
  </g>
</svg>